<?xml version="1.0" standalone="no"?>
<!DOCTYPE svg PUBLIC "-//W3C//DTD SVG 20010904//EN"
 "http://www.w3.org/TR/2001/REC-SVG-20010904/DTD/svg10.dtd">
<svg version="1.0" xmlns="http://www.w3.org/2000/svg"
 width="275.000000pt" height="183.000000pt" viewBox="0 0 275.000000 183.000000"
 preserveAspectRatio="xMidYMid meet">

<g transform="translate(0.000000,183.000000) scale(0.100000,-0.100000)"
fill="#000000" stroke="none">
<path d="M1850 1260 c-35 -5 -35 -5 -40 -65 -3 -36 -8 -55 -13 -47 -5 6 -28
12 -53 12 -54 0 -88 -30 -99 -86 -18 -99 64 -171 150 -132 21 9 28 9 34 -1 6
-8 20 -10 44 -6 24 5 34 11 30 19 -4 6 -10 79 -13 161 l-5 150 -35 -5z m-52
-179 c8 -5 12 -22 10 -42 -3 -31 -6 -34 -37 -34 -43 0 -60 23 -43 59 12 27 44
34 70 17z"/>
<path d="M850 1090 l0 -150 45 0 45 0 0 50 0 50 55 0 55 0 0 35 0 35 -55 0
c-54 0 -55 0 -55 30 l0 30 76 0 75 0 -3 33 -3 32 -117 3 -118 3 0 -151z"/>
<path d="M1127 1139 c-63 -49 -53 -160 18 -194 64 -30 151 -9 174 41 14 31 14
99 1 125 -27 49 -144 67 -193 28z m119 -64 c33 -51 -25 -106 -67 -64 -23 23
-24 47 -2 71 23 25 50 22 69 -7z"/>
<path d="M1407 1140 c-56 -44 -55 -132 1 -181 32 -29 40 -31 90 -27 47 4 60
10 84 37 22 25 28 41 28 77 0 25 -5 54 -10 65 -27 49 -144 67 -193 29z m119
-65 c33 -51 -25 -106 -67 -64 -23 23 -24 47 -2 71 23 25 50 22 69 -7z"/>
<path d="M1645 886 c-28 -42 -34 -82 -19 -111 13 -26 12 -30 -12 -62 -50 -66
-146 -113 -230 -113 l-42 0 17 45 c14 41 14 48 1 73 -39 69 -123 60 -154 -19
l-17 -42 -41 40 c-39 40 -40 41 -27 76 20 55 -14 141 -43 111 -4 -3 0 -21 8
-41 8 -19 13 -40 11 -46 -2 -7 -12 7 -22 31 -9 23 -23 42 -31 42 -18 0 -18
-12 1 -57 18 -44 18 -44 0 -37 -8 3 -19 21 -25 40 -7 19 -18 34 -27 34 -34 0
15 -101 53 -109 10 -2 45 -31 78 -66 76 -77 143 -106 253 -106 62 0 84 4 136
29 64 31 112 69 141 114 9 14 30 28 47 32 58 11 87 130 39 156 -34 18 -78 12
-95 -14z"/>
</g>
</svg>
